<?xml version="1.0" encoding="UTF-8"?>
<svg version="1.1" xmlns="http://www.w3.org/2000/svg" width="256" height="256">
<path d="M0 0 C7.08285672 7.96821381 11.25541134 16.82360014 12.3125 27.4140625 C12.48894499 30.96087408 12.48894499 30.96087408 14.31640625 32.9375 C17.10583615 36.85581146 16.36143957 41.43690631 15.8125 46.0390625 C14.16390416 52.46858628 10.40200609 55.54048866 4.93359375 59.0078125 C2.8125 60.0390625 2.8125 60.0390625 -0.1875 60.0390625 C-0.105 61.1528125 -0.0225 62.2665625 0.0625 63.4140625 C0.10106681 68.79413256 -1.97605221 73.22126553 -4.1875 78.0390625 C-3.1975 77.3790625 -2.2075 76.7190625 -1.1875 76.0390625 C6.72643257 74.78499395 17.37384384 74.22109775 24.3125 78.6015625 C26.24609375 80.28515625 26.24609375 80.28515625 27.8125 82.0390625 C28.27785156 82.54566406 28.74320313 83.05226563 29.22265625 83.57421875 C32.85067496 88.57965474 32.73734899 95.1316937 31.8125 101.0390625 C31.06947128 101.82287041 31.06947128 101.82287041 30.31143188 102.62251282 C27.97110056 106.39555079 28.38145508 110.11795205 28.39599609 114.47338867 C28.38311806 115.90563026 28.38311806 115.90563026 28.36997986 117.36680603 C28.34489049 120.52195582 28.34053892 123.67679078 28.3359375 126.83203125 C28.32163238 129.02111273 28.30587626 131.21018517 28.28872681 133.39924622 C28.24684366 139.16098234 28.22186397 144.92266242 28.20123291 150.68450928 C28.16543189 159.91846787 28.10459786 169.15228843 28.04274368 178.38610268 C28.02358498 181.61963996 28.01190464 184.85314028 28.00131226 188.0867157 C27.99110605 190.05545127 27.98074864 192.02418607 27.97021484 193.99291992 C27.96917252 194.89941284 27.96813019 195.80590576 27.96705627 196.73986816 C27.92592745 202.92563505 27.92592745 202.92563505 26.8125 204.0390625 C24.81291636 204.07987033 22.81204746 204.08160606 20.8125 204.0390625 C20.4825 202.7190625 20.1525 201.3990625 19.8125 200.0390625 C14.5325 200.0390625 9.2525 200.0390625 3.8125 200.0390625 C3.4825 201.3590625 3.1525 202.6790625 2.8125 204.0390625 C0.8325 204.0390625 -1.1475 204.0390625 -3.1875 204.0390625 C-3.5175 202.7190625 -3.8475 201.3990625 -4.1875 200.0390625 C-26.6275 200.0390625 -49.0675 200.0390625 -72.1875 200.0390625 C-72.5175 201.3590625 -72.8475 202.6790625 -73.1875 204.0390625 C-75.18704746 204.08160606 -77.18791636 204.07987033 -79.1875 204.0390625 C-81.32620085 201.90036165 -80.39858276 197.03967712 -80.43359375 194.0703125 C-80.46656591 192.20051675 -80.49977692 190.33072519 -80.53320312 188.4609375 C-80.58038419 185.50979878 -80.62473707 182.55867277 -80.66430664 179.60742188 C-80.70436605 176.76152442 -80.75586286 173.9159996 -80.80859375 171.0703125 C-80.8170079 170.20120239 -80.82542206 169.33209229 -80.83409119 168.43664551 C-80.99797885 160.19436033 -81.74468994 152.57043457 -87.1875 146.0390625 C-88.83118213 145.00171645 -90.49548208 143.99554205 -92.1875 143.0390625 C-92.18527939 143.78852646 -92.18305878 144.53799042 -92.18077087 145.31016541 C-92.16076821 152.35888541 -92.145526 159.40759565 -92.13568783 166.45633602 C-92.13045998 170.0805221 -92.12336413 173.7046848 -92.11206055 177.32885742 C-92.10122816 180.82366225 -92.09522242 184.31844454 -92.09262276 187.81326485 C-92.08986449 189.80145639 -92.08205312 191.78963881 -92.07420349 193.77781677 C-92.07412796 194.97898636 -92.07405243 196.18015594 -92.07397461 197.41772461 C-92.071754 198.48139755 -92.06953339 199.5450705 -92.06724548 200.64097595 C-92.1875 203.0390625 -92.1875 203.0390625 -93.1875 204.0390625 C-95.18708364 204.07987033 -97.18795254 204.08160606 -99.1875 204.0390625 C-99.5175 202.7190625 -99.8475 201.3990625 -100.1875 200.0390625 C-123.9475 200.0390625 -147.7075 200.0390625 -172.1875 200.0390625 C-172.5175 201.3590625 -172.8475 202.6790625 -173.1875 204.0390625 C-175.1675 204.0390625 -177.1475 204.0390625 -179.1875 204.0390625 C-179.6825 202.0590625 -179.6825 202.0590625 -180.1875 200.0390625 C-185.4675 200.0390625 -190.7475 200.0390625 -196.1875 200.0390625 C-196.6825 202.0190625 -196.6825 202.0190625 -197.1875 204.0390625 C-199.18704746 204.08160606 -201.18791636 204.07987033 -203.1875 204.0390625 C-205.03511765 202.19144485 -204.31402068 199.57941895 -204.32302856 197.12063599 C-204.32100433 196.2702475 -204.3189801 195.41985901 -204.31689453 194.54370117 C-204.31864685 193.65265182 -204.32039917 192.76160248 -204.32220459 191.84355164 C-204.32662587 188.88135868 -204.32368341 185.91922487 -204.3203125 182.95703125 C-204.32098564 180.90538013 -204.32195575 178.85372909 -204.32321167 176.80207825 C-204.32468916 172.49361413 -204.32253311 168.1851707 -204.31787109 163.87670898 C-204.31218452 158.35169158 -204.31544569 152.82672287 -204.32144356 147.30170727 C-204.32505695 143.06126031 -204.3239068 138.82082489 -204.32131577 134.58037758 C-204.3206481 132.54339912 -204.32146935 130.50641961 -204.32379532 128.46944237 C-204.32633338 125.62046919 -204.32246439 122.77157474 -204.31689453 119.92260742 C-204.31891876 119.07829163 -204.32094299 118.23397583 -204.32302856 117.36407471 C-204.30141615 111.39993462 -204.30141615 111.39993462 -203.52721977 108.9473772 C-203.41511225 108.31763335 -203.30300472 107.6878895 -203.1875 107.0390625 C-204.3940625 105.8015625 -204.3940625 105.8015625 -205.625 104.5390625 C-209.02715922 100.76419483 -208.9542063 96.99770328 -208.734375 92.08203125 C-207.57562385 85.63440876 -204.3351754 81.58049535 -199.1015625 77.82421875 C-194.57391769 75.3835399 -190.17263645 75.41285811 -185.125 75.4765625 C-184.25294922 75.45271484 -183.38089844 75.42886719 -182.48242188 75.40429688 C-178.09921179 75.41425117 -175.10473193 75.63061749 -171.62890625 78.44921875 C-169.1875 81.0390625 -169.1875 81.0390625 -168.1875 83.0390625 C-166.8675 83.0390625 -165.5475 83.0390625 -164.1875 83.0390625 C-164.59742188 82.45898438 -165.00734375 81.87890625 -165.4296875 81.28125 C-170.4317371 74.02947474 -172.49135482 68.85085241 -172.1875 60.0390625 C-173.2084375 59.94625 -173.2084375 59.94625 -174.25 59.8515625 C-179.71434013 58.34014927 -183.47689843 55.57540269 -186.37109375 50.6875 C-189.09549352 44.92371435 -188.77014047 38.98313469 -188.6875 32.7265625 C-188.70296875 31.56705078 -188.7184375 30.40753906 -188.734375 29.21289062 C-188.68054453 17.24233947 -185.51622377 7.76360681 -177.1875 -0.9609375 C-166.86350666 -10.81654551 -156.02734663 -12.57391142 -142.1484375 -12.38671875 C-140.73166364 -12.38178345 -139.3148832 -12.37849201 -137.89810181 -12.37675476 C-134.95479921 -12.36917633 -132.01199374 -12.34879134 -129.06884766 -12.31762695 C-125.29031758 -12.27768977 -121.51210627 -12.25995307 -117.7333889 -12.25031757 C-114.12169524 -12.24038075 -110.51007948 -12.22050679 -106.8984375 -12.19921875 C-105.8644388 -12.19412513 -105.8644388 -12.19412513 -104.80955124 -12.1889286 C-102.87348209 -12.17741128 -100.93746549 -12.15788652 -99.00146484 -12.13793945 C-97.34913345 -12.12317314 -97.34913345 -12.12317314 -95.66342163 -12.10810852 C-93.1875 -11.9609375 -93.1875 -11.9609375 -92.1875 -10.9609375 C-91.94346525 -6.67147209 -91.95889775 -2.37596941 -91.94726562 1.91967773 C-91.93764752 4.06860369 -91.90668221 6.2165368 -91.875 8.36523438 C-91.82105073 15.6389346 -92.2661024 21.35355645 -95.1875 28.0390625 C-94.75665978 31.07442745 -93.94696606 32.39986342 -92.1875 35.0390625 C-91.34838504 41.0787388 -91.64374541 46.89505719 -94.7109375 52.24609375 C-97.54328108 55.6853681 -101.20072526 58.10074108 -105.1875 60.0390625 C-106.1775 60.0390625 -107.1675 60.0390625 -108.1875 60.0390625 C-108.105 61.1734375 -108.0225 62.3078125 -107.9375 63.4765625 C-107.9375 71.06451628 -112.03940699 76.95635468 -116.1875 83.0390625 C-107.87867399 82.81808308 -100.03957958 82.24560156 -92 80.0390625 C-81.25803801 77.11560888 -71.21049978 76.60320081 -60.1875 78.0390625 C-60.620625 77.09546875 -60.620625 77.09546875 -61.0625 76.1328125 C-63.53060777 70.44245292 -64.64632643 66.23321929 -64.1875 60.0390625 C-64.868125 59.9771875 -65.54875 59.9153125 -66.25 59.8515625 C-71.71052876 58.34120348 -75.76870101 55.34674905 -78.625 50.4140625 C-80.7788714 45.53071615 -81.08980045 40.27403088 -80.1875 35.0390625 C-79.19343197 33.70130074 -78.19323778 32.36807314 -77.1875 31.0390625 C-76.54327594 28.34152958 -76.54327594 28.34152958 -76.25 25.4140625 C-74.32277905 12.70982203 -68.79279711 2.93186352 -58.375 -4.8359375 C-39.96794406 -16.8061702 -16.19904463 -15.32159638 0 0 Z M-8.1875 81.0390625 C-7.1875 83.0390625 -7.1875 83.0390625 -7.1875 83.0390625 Z " fill="#3C8786" transform="translate(216.1875,43.9609375)"/>
<path d="M0 0 C-2.10198015 2.11084927 -4.21224424 4.20107349 -6.375 6.25 C-8.49249464 8.46832772 -10.21316055 10.59299625 -12 13.0625 C-16.25083161 18.73383565 -19.12775652 21.01729688 -26.25 22.1875 C-27.30703125 22.32542969 -28.3640625 22.46335938 -29.453125 22.60546875 C-31.9291921 22.73234976 -31.9291921 22.73234976 -33 24 C-33.1252097 26.79908707 -33.18608723 29.57470329 -33.20532227 32.37524414 C-33.21522186 33.25321152 -33.22512146 34.13117889 -33.23532104 35.03575134 C-33.26703427 37.95219175 -33.29173211 40.86864848 -33.31640625 43.78515625 C-33.33696731 45.80155371 -33.35796354 47.81794677 -33.37937927 49.83433533 C-33.43468759 55.15260266 -33.4840581 60.47090945 -33.53222656 65.78924561 C-33.59118867 72.16440415 -33.65746462 78.53949028 -33.72252655 84.91458893 C-33.82064621 94.60968188 -33.90942686 104.30482036 -34 114 C-57.76 114 -81.52 114 -106 114 C-106.33 115.32 -106.66 116.64 -107 118 C-108.98 118 -110.96 118 -113 118 C-113.33 116.68 -113.66 115.36 -114 114 C-119.28 114 -124.56 114 -130 114 C-130.06781219 102.89062423 -130.12283722 91.78138622 -130.15543652 80.6718502 C-130.17108356 75.51308876 -130.19230444 70.35447642 -130.22631836 65.19580078 C-130.25894586 60.21615765 -130.27686025 55.23665783 -130.28463173 50.25691605 C-130.29016913 48.35833099 -130.30098235 46.45975366 -130.31719017 44.56122971 C-130.33900947 41.8992094 -130.34196504 39.23777913 -130.34057617 36.57568359 C-130.351362 35.79309174 -130.36214783 35.01049988 -130.3732605 34.20419312 C-130.34634132 29.42697552 -129.6545675 26.13547784 -127 22 C-124.94921875 21.37109375 -124.94921875 21.37109375 -122.6875 21.4375 C-117.47219822 21.20044083 -115.66364567 19.66364567 -112 16 C-111.29875 15.319375 -110.5975 14.63875 -109.875 13.9375 C-109.25625 13.298125 -108.6375 12.65875 -108 12 C-106.9171875 10.948125 -106.9171875 10.948125 -105.8125 9.875 C-103.93535679 8.12080131 -103.93535679 8.12080131 -103 6 C-99.7 6 -96.4 6 -93 6 C-92.484375 7.381875 -91.96875 8.76375 -91.4375 10.1875 C-89.20241126 15.25636197 -86.74948633 17.2366625 -82 20 C-75.41076261 22.19641246 -69.22212949 21.43745477 -63.015625 18.41015625 C-58.69557602 15.3877964 -56.62825718 10.88477154 -55 6 C-53.88367188 5.98582031 -52.76734375 5.97164062 -51.6171875 5.95703125 C-41.30609419 5.68800738 -31.89479212 4.23995282 -21.89355469 1.73876953 C-14.4416894 -0.06229759 -7.681987 -0.58991368 0 0 Z " fill="#A7DAA7" transform="translate(150,130)"/>
<path d="M0 0 C1.22589844 0.01353516 1.22589844 0.01353516 2.4765625 0.02734375 C3.10304687 0.03894531 3.72953125 0.05054688 4.375 0.0625 C4.9628125 1.6403125 4.9628125 1.6403125 5.5625 3.25 C7.65369313 8.0871056 10.71170667 10.94074403 15.0625 13.875 C21.01264052 16.00806924 26.84806968 16.06095999 32.6875 13.5 C37.29906171 10.87682421 40.5506652 6.97071221 42.00390625 1.84375 C42.12636719 1.2559375 42.24882812 0.668125 42.375 0.0625 C44.355 0.0625 46.335 0.0625 48.375 0.0625 C48.601875 0.84625 48.82875 1.63 49.0625 2.4375 C50.09905955 5.24509346 50.09905955 5.24509346 52.625 5.9375 C56.17279762 7.38887176 57.70764208 9.54007477 60.04296875 12.50390625 C64.06468245 17.2096651 68.44025347 15.48460446 75.375 16.0625 C75.375 46.4225 75.375 76.7825 75.375 108.0625 C70.095 108.0625 64.815 108.0625 59.375 108.0625 C58.88 110.0425 58.88 110.0425 58.375 112.0625 C56.395 112.0625 54.415 112.0625 52.375 112.0625 C52.045 110.7425 51.715 109.4225 51.375 108.0625 C28.935 108.0625 6.495 108.0625 -16.625 108.0625 C-16.75 85.8125 -16.75 85.8125 -16.74267578 78.86621094 C-16.84197867 67.09402431 -17.06457134 57.15850923 -25.47314453 48.06347656 C-28.93078857 44.79082619 -32.23424958 43.25787521 -36.625 41.0625 C-36.625 35.4525 -36.625 29.8425 -36.625 24.0625 C-34.76875 23.505625 -32.9125 22.94875 -31 22.375 C-22.49075478 19.49863542 -18.90713413 15.74481705 -14.140625 8.21875 C-10.51959146 3.06717651 -6.36021005 -0.09086014 0 0 Z " fill="#78BC99" transform="translate(160.625,135.9375)"/>
<path d="M0 0 C1.21229279 0.0028299 2.42458557 0.00565979 3.6736145 0.00857544 C7.53511539 0.01974583 11.39638203 0.04484513 15.2578125 0.0703125 C17.88020498 0.08034634 20.5026011 0.08947148 23.125 0.09765625 C29.54435039 0.11967492 35.9635647 0.15312152 42.3828125 0.1953125 C42.5006035 3.50750482 42.57058405 6.81914742 42.6328125 10.1328125 C42.66632813 11.05900391 42.69984375 11.98519531 42.734375 12.93945312 C42.82631324 19.49005244 41.76952911 24.53183126 38.3828125 30.1953125 C35.75726618 32.82085882 34.48006986 32.5235723 30.8203125 32.5703125 C20.84981073 32.3678053 14.22562405 28.25486469 7.3828125 21.1953125 C6.35925753 19.8799749 5.35210525 18.55113304 4.3828125 17.1953125 C1.22574754 17.51646221 -0.26258835 17.83999262 -2.5390625 20.12109375 C-3.14234375 20.90871094 -3.745625 21.69632813 -4.3671875 22.5078125 C-9.15989517 28.21730706 -14.43916444 30.61558353 -21.6171875 32.1953125 C-24.37689158 32.26458218 -27.10914792 32.2894861 -29.8671875 32.2578125 C-30.61226562 32.25330078 -31.35734375 32.24878906 -32.125 32.24414062 C-33.9557639 32.23240496 -35.78648623 32.214471 -37.6171875 32.1953125 C-37.89655706 23.33070152 -34.83194335 16.95725599 -29.38671875 10.05078125 C-20.89796538 1.14977054 -11.76566919 -0.10361998 0 0 Z " fill="#78BC99" transform="translate(73.6171875,39.8046875)"/>
<path d="M0 0 C8.13802152 5.85670729 14.96347514 13.64880943 16.61328125 23.7578125 C16.74089844 24.82773438 16.86851562 25.89765625 17 27 C13.37507033 27.05891984 9.75026666 27.0939009 6.125 27.125 C4.60519531 27.15013672 4.60519531 27.15013672 3.0546875 27.17578125 C-6.05801087 27.23419598 -14.29206674 26.78800072 -22 21.5 C-22.9075 20.8915625 -23.815 20.283125 -24.75 19.65625 C-27 18 -27 18 -29 16 C-34.60864738 16.14969699 -38.48891089 20.14051833 -42.65234375 23.49414062 C-46.86511664 26.70232921 -49.52591345 27.55300874 -55 27 C-53.10718989 16.15936028 -48.71745121 7.93467956 -40 1 C-27.16630476 -6.7774123 -13.26292704 -7.66943172 0 0 Z " fill="#A6D9A7" transform="translate(203,45)"/>
<path d="M0 0 C2.72170468 1.06924113 3.93858592 1.91583997 5.6875 4.3125 C10.82514956 10.28328193 17.55858728 12.28093947 25 14 C25.11727273 18.14559093 25.18760933 22.29074862 25.25 26.4375 C25.30027344 28.18450195 25.30027344 28.18450195 25.3515625 29.96679688 C25.45310249 38.97847062 24.02992313 45.53950329 18.25 52.5625 C15.78485889 54.75169248 14.79515204 55.04238234 11.375 55.75 C3.73796093 55.16026725 -3.93357892 50.54893737 -9 45 C-8.67 44.34 -8.34 43.68 -8 43 C-7.43023437 43.32355469 -6.86046875 43.64710937 -6.2734375 43.98046875 C-1.42399221 46.15521999 3.58633588 45.47963604 8.5 43.8125 C11.22204568 42.21287032 11.22204568 42.21287032 11.875 39.3125 C11.91625 38.549375 11.9575 37.78625 12 37 C9.64632287 36.3121764 9.64632287 36.3121764 7 36 C6.01 36.66 5.02 37.32 4 38 C-0.07490752 38.33957563 -1.53001271 38.31332486 -5 36 C-7.58333333 36.08333333 -7.58333333 36.08333333 -10 37 C-10.66 37.99 -11.32 38.98 -12 40 C-14.95671348 33.47059106 -15.35368021 28.12600133 -15 21 C-13.02 21.33 -11.04 21.66 -9 22 C-8.67 20.35 -8.34 18.7 -8 17 C-10.475 16.01 -10.475 16.01 -13 15 C-10.71918226 10.56507662 -7.83261866 8.1286683 -4 5 C-2.62294236 3.36927384 -1.27277889 1.7133562 0 0 Z " fill="#FDFEFD" transform="translate(75,69)"/>
<path d="M0 0 C2.94948157 1.37906409 5.44270836 3.01305493 8.0625 4.9375 C13.05397473 8.34002194 18.14023945 9.75137813 24 11 C23.01 12.485 23.01 12.485 22 14 C22.3121764 16.64632287 22.3121764 16.64632287 23 19 C24.65 18.67 26.3 18.34 28 18 C27.67 16.02 27.34 14.04 27 12 C30.3 12 33.6 12 37 12 C37.11735877 15.97891352 37.18763654 19.9573746 37.25 23.9375 C37.28351563 25.05447266 37.31703125 26.17144531 37.3515625 27.32226562 C37.4553675 36.17164174 35.92822589 42.67135866 30.25 49.5625 C27.78485889 51.75169248 26.79515204 52.04238234 23.375 52.75 C15.73796093 52.16026725 8.06642108 47.54893737 3 42 C3.33 41.34 3.66 40.68 4 40 C4.56976563 40.32355469 5.13953125 40.64710937 5.7265625 40.98046875 C10.57600779 43.15521999 15.58633588 42.47963604 20.5 40.8125 C23.22204568 39.21287032 23.22204568 39.21287032 23.875 36.3125 C23.91625 35.549375 23.9575 34.78625 24 34 C21.64632287 33.3121764 21.64632287 33.3121764 19 33 C18.01 33.66 17.02 34.32 16 35 C11.92509248 35.33957563 10.46998729 35.31332486 7 33 C4.41666667 33.08333333 4.41666667 33.08333333 2 34 C1.34 34.99 0.68 35.98 0 37 C-2.95671348 30.47059106 -3.35368021 25.12600133 -3 18 C-1.02 18.33 0.96 18.66 3 19 C3.33 17.35 3.66 15.7 4 14 C0.41672247 12.99782936 0.41672247 12.99782936 -3 14 C-3.32374517 8.49633208 -3.53286034 4.56327794 0 0 Z " fill="#FDFDFD" transform="translate(171,72)"/>
<path d="M0 0 C1.88671875 1.0859375 1.88671875 1.0859375 3.6875 2.375 C12.74810244 8.2020789 22.49977827 8.59399143 33 9 C33 10.32 33 11.64 33 13 C28.545 13.495 28.545 13.495 24 14 C24.20625 14.78375 24.4125 15.5675 24.625 16.375 C24.74875 17.24125 24.8725 18.1075 25 19 C24.34 19.66 23.68 20.32 23 21 C20.375 20.625 20.375 20.625 18 20 C17.375 17.625 17.375 17.625 17 15 C17.66 14.34 18.32 13.68 19 13 C18.2265625 12.78085938 17.453125 12.56171875 16.65625 12.3359375 C10.45967946 10.44935785 5.57773056 8.48000768 0.62109375 4.26953125 C-1.08938291 2.78356329 -1.08938291 2.78356329 -4 2 C-6.60018816 5.90028225 -6.15085514 9.47434569 -6 14 C-5.21625 13.79375 -4.4325 13.5875 -3.625 13.375 C-2.325625 13.189375 -2.325625 13.189375 -1 13 C-0.34 13.66 0.32 14.32 1 15 C0.625 17.625 0.625 17.625 0 20 C-1.65614657 20.38218767 -3.32457024 20.71395102 -5 21 C-5.33 20.67 -5.66 20.34 -6 20 C-6.20413361 25.73842251 -6.27141454 30.60539047 -4 36 C-3.608125 35.484375 -3.21625 34.96875 -2.8125 34.4375 C-1 33 -1 33 1.5625 33.25 C4 34 4 34 6 35 C10.05142119 35.25860135 11.54337669 35.30441554 15 33 C17.6875 33.375 17.6875 33.375 20 34 C20.495 36.475 20.495 36.475 21 39 C16.80801515 42.51220352 14.05334473 44.14351887 8.5625 44.125 C7.80066406 44.12757812 7.03882813 44.13015625 6.25390625 44.1328125 C4.04684141 44.00276015 2.12030724 43.60856199 0 43 C6.64752678 48.33528773 12.34584559 51.94461532 21 53 C20 55 20 55 17.625 56.125 C10.54431207 57.83413157 3.38413184 58.21121865 -3.08203125 54.46484375 C-8.94016665 49.99070775 -12.99125289 45.10917217 -15 38 C-15.50079177 33.58605938 -15.62389357 29.1800616 -15.70019531 24.7421875 C-15.73333001 23.33363783 -15.7879463 21.92542591 -15.86425781 20.51855469 C-16.48501674 8.97243867 -16.48501674 8.97243867 -12.89648438 4.20605469 C-5.75091089 -1.89181964 -5.75091089 -1.89181964 0 0 Z " fill="#CDEE9E" transform="translate(175,71)"/>
<path d="M0 0 C2.71244891 1.14757454 4.49258575 2.42541497 6.75 4.375 C12.11091745 8.95271036 18.2304247 11.30760618 25 13 C25 13.99 25 14.98 25 16 C18.08640143 16.69135986 12.94650903 13.71503701 7.6875 9.5 C5.46131256 7.42912796 3.67912737 5.51869105 2 3 C-1.84130598 4.50908449 -3.48803112 6.8029487 -6 10 C-7.65533995 11.34736973 -9.32012773 12.68334336 -11 14 C-11.33 14.66 -11.66 15.32 -12 16 C-10.35 16.99 -8.7 17.98 -7 19 C-7.33 20.65 -7.66 22.3 -8 24 C-9.65614657 24.38218767 -11.32457024 24.71395102 -13 25 C-13.33 24.67 -13.66 24.34 -14 24 C-14.20413361 29.73842251 -14.27141454 34.60539047 -12 40 C-11.608125 39.484375 -11.21625 38.96875 -10.8125 38.4375 C-9 37 -9 37 -6.4375 37.25 C-4 38 -4 38 -2 39 C2.05142119 39.25860135 3.54337669 39.30441554 7 37 C9.6875 37.375 9.6875 37.375 12 38 C12.495 40.475 12.495 40.475 13 43 C8.80801515 46.51220352 6.05334473 48.14351887 0.5625 48.125 C-0.19933594 48.12757812 -0.96117188 48.13015625 -1.74609375 48.1328125 C-3.95315859 48.00276015 -5.87969276 47.60856199 -8 47 C-1.35247322 52.33528773 4.34584559 55.94461532 13 57 C12 59 12 59 9.625 60.125 C2.54431207 61.83413157 -4.61586816 62.21121865 -11.08203125 58.46484375 C-16.91865762 54.00713522 -21.04146475 49.10758759 -23 42 C-23.22705078 38.56494141 -23.22705078 38.56494141 -23.1953125 34.8515625 C-23.1924826 34.19417084 -23.18965271 33.53677917 -23.18673706 32.85946655 C-23.17563447 30.78111767 -23.15054986 28.70321634 -23.125 26.625 C-23.11495731 25.20703752 -23.10583373 23.78906821 -23.09765625 22.37109375 C-23.07572805 18.91391963 -23.04126818 15.45700358 -23 12 C-22.40541992 11.88245361 -21.81083984 11.76490723 -21.19824219 11.64379883 C-12.55067814 9.84588621 -5.9150855 6.67832234 0 0 Z " fill="#CCED9E" transform="translate(75,67)"/>
<path d="M0 0 C4.55555556 0.55555556 4.55555556 0.55555556 6 2 C6.09967586 4.26449379 6.12799831 6.53214211 6.12939453 8.79882812 C6.13114685 9.50937851 6.13289917 10.21992889 6.13470459 10.95201111 C6.13912277 13.31178191 6.13618525 15.67147837 6.1328125 18.03125 C6.13348555 19.66410334 6.13445558 21.29695658 6.13571167 22.92980957 C6.1371886 26.35637361 6.13503426 29.78291163 6.13037109 33.20947266 C6.1246738 37.61154501 6.12795284 42.01355641 6.13394356 46.41562653 C6.13754931 49.78868065 6.13641052 53.16172022 6.13381577 56.53477478 C6.13314654 58.15836087 6.13397478 59.78194827 6.13629532 61.40553284 C6.13882209 63.6707817 6.13498094 65.9359305 6.12939453 68.20117188 C6.12859894 69.49277222 6.12780334 70.78437256 6.12698364 72.1151123 C6 75 6 75 5 76 C2 76.125 2 76.125 -1 76 C-2.900004 74.099996 -2.13780974 70.7368554 -2.14526367 68.21704102 C-2.15030159 67.15362488 -2.15030159 67.15362488 -2.15544128 66.06872559 C-2.16497816 63.71376822 -2.16689576 61.35888175 -2.16796875 59.00390625 C-2.17117945 57.37344838 -2.17454337 55.74299081 -2.17805481 54.11253357 C-2.18405295 50.69016858 -2.18589401 47.26782887 -2.18530273 43.84545898 C-2.18520108 39.45240768 -2.19885393 35.05951787 -2.21607494 30.66650486 C-2.22717424 27.29769644 -2.22922258 23.92892731 -2.22869301 20.56010246 C-2.22987623 18.94012838 -2.23431707 17.32015339 -2.24202538 15.70019722 C-2.25178367 13.43746645 -2.24896393 11.17508954 -2.24291992 8.91235352 C-2.24434494 7.62297379 -2.24576996 6.33359406 -2.24723816 5.00514221 C-2 2 -2 2 0 0 Z " fill="#3B8686" transform="translate(38,172)"/>
<path d="M0 0 C4.55555556 0.55555556 4.55555556 0.55555556 6 2 C6.09952293 4.14200324 6.12799679 6.28732705 6.12939453 8.43164062 C6.13114685 9.10317673 6.13289917 9.77471283 6.13470459 10.46659851 C6.1391223 12.69650828 6.13618542 14.92633936 6.1328125 17.15625 C6.13348556 18.69942236 6.13445561 20.24259461 6.13571167 21.7857666 C6.13718853 25.0240174 6.13503447 28.26224067 6.13037109 31.50048828 C6.1246738 35.66042523 6.12795287 39.82029766 6.13394356 43.98023224 C6.13754949 47.16799408 6.13641044 50.35574051 6.13381577 53.54350281 C6.13314658 55.07777412 6.13397461 56.61204682 6.13629532 58.14631653 C6.13882238 60.28703541 6.13498054 62.42764842 6.12939453 64.56835938 C6.12820114 66.39917053 6.12820114 66.39917053 6.12698364 68.26696777 C6 71 6 71 5 72 C2 72.125 2 72.125 -1 72 C-2.85707422 70.14292578 -2.1374957 67.06539224 -2.14526367 64.58422852 C-2.14862228 63.91429871 -2.1519809 63.2443689 -2.15544128 62.55413818 C-2.16497721 60.32904226 -2.16689572 58.10402137 -2.16796875 55.87890625 C-2.17117953 54.33812936 -2.17454346 52.79735278 -2.17805481 51.25657654 C-2.18405272 48.02252495 -2.18589404 44.78850012 -2.18530273 41.55444336 C-2.18520108 37.4035248 -2.19885353 33.25277717 -2.21607494 29.10189915 C-2.2271754 25.91838284 -2.22922255 22.73490812 -2.22869301 19.55137444 C-2.22987607 18.02071481 -2.23431603 16.4900542 -2.24202538 14.95941353 C-2.25178599 12.82120812 -2.24896305 10.68337702 -2.24291992 8.54516602 C-2.24434494 7.32684586 -2.24576996 6.1085257 -2.24723816 4.85328674 C-2 2 -2 2 0 0 Z " fill="#3B8686" transform="translate(214,176)"/>
<path d="M0 0 C1.8871875 -0.02126953 1.8871875 -0.02126953 3.8125 -0.04296875 C7 0.1875 7 0.1875 9 2.1875 C9 4.625 9 4.625 8 7.1875 C6.00854609 8.20441264 4.00812926 9.20392648 2 10.1875 C0.63921965 12.71122901 0.63921965 12.71122901 0 15.1875 C-1.80746134 16.99496134 -4.50445781 16.36053483 -6.9375 16.375 C-8.01902344 16.38917969 -9.10054687 16.40335938 -10.21484375 16.41796875 C-13 16.1875 -13 16.1875 -15 14.1875 C-15.59460655 10.99148982 -15.55294059 9.01860702 -13.7265625 6.2734375 C-9.2526529 0.97021783 -7.07561734 0.03624804 0 0 Z " fill="#FAFCFB" transform="translate(31,127.8125)"/>
<path d="M0 0 C1.13050781 -0.01675781 2.26101562 -0.03351563 3.42578125 -0.05078125 C8.15921333 0.47641538 10.68572714 2.31072714 14 5.625 C16.01226717 8.82972179 16.18340079 10.59324407 15.6875 14.3125 C13.6875 16.3125 13.6875 16.3125 10.9375 16.578125 C9.865 16.57296875 8.7925 16.5678125 7.6875 16.5625 C6.07875 16.57023437 6.07875 16.57023437 4.4375 16.578125 C1.6875 16.3125 1.6875 16.3125 -0.3125 14.3125 C-0.580625 13.4875 -0.84875 12.6625 -1.125 11.8125 C-2.07948079 9.06608691 -2.07948079 9.06608691 -4.875 8.3125 C-5.679375 7.9825 -6.48375 7.6525 -7.3125 7.3125 C-8.25 4.8125 -8.25 4.8125 -8.3125 2.3125 C-5.55375965 -0.44624035 -3.84573529 0.01306592 0 0 Z " fill="#FCFDFC" transform="translate(224.3125,127.6875)"/>
<path d="M0 0 C2.61580479 0.3269756 4.64078137 0.82039068 7 2 C11.05142119 2.25860135 12.54337669 2.30441554 16 0 C18.6875 0.375 18.6875 0.375 21 1 C21.33 2.65 21.66 4.3 22 6 C17.04675142 10.15001908 13.65772554 11.36431371 7.29296875 11.28125 C3.68547441 10.83876347 1.63197336 9.43457536 -1 7 C-2 4.375 -2 4.375 -2 2 C-1.34 1.34 -0.68 0.68 0 0 Z " fill="#428A8A" transform="translate(174,104)"/>
<path d="M0 0 C2.61580479 0.3269756 4.64078137 0.82039068 7 2 C11.05142119 2.25860135 12.54337669 2.30441554 16 0 C18.6875 0.375 18.6875 0.375 21 1 C21.33 2.65 21.66 4.3 22 6 C17.04675142 10.15001908 13.65772554 11.36431371 7.29296875 11.28125 C3.68547441 10.83876347 1.63197336 9.43457536 -1 7 C-2 4.375 -2 4.375 -2 2 C-1.34 1.34 -0.68 0.68 0 0 Z " fill="#428A8A" transform="translate(66,104)"/>
<path d="M0 0 C0.92941406 0.48210937 1.85882813 0.96421875 2.81640625 1.4609375 C4.06493755 2.09928433 5.31364495 2.73728678 6.5625 3.375 C7.17158203 3.69210938 7.78066406 4.00921875 8.40820312 4.3359375 C15.12498757 7.74763754 21.38173045 9.2238087 28.9375 9.625 C29.62134766 9.66367188 30.30519531 9.70234375 31.00976562 9.7421875 C32.67279513 9.83522412 34.33635847 9.91863787 36 10 C36 11.32 36 12.64 36 14 C31.545 14.495 31.545 14.495 27 15 C27.20625 15.78375 27.4125 16.5675 27.625 17.375 C27.74875 18.24125 27.8725 19.1075 28 20 C27.34 20.66 26.68 21.32 26 22 C23.375 21.625 23.375 21.625 21 21 C20.375 18.625 20.375 18.625 20 16 C20.66 15.34 21.32 14.68 22 14 C21.2265625 13.78085938 20.453125 13.56171875 19.65625 13.3359375 C11.14147938 10.74356922 5.19065067 7.34118321 -1 1 C-0.67 0.67 -0.34 0.34 0 0 Z " fill="#CEEEA0" transform="translate(172,70)"/>
<path d="M0 0 C1.07314453 0.24363281 1.07314453 0.24363281 2.16796875 0.4921875 C9.38461574 1.78620696 16.79670394 1.08728997 24 0 C22.68954637 3.93136089 21.16791954 6.31206827 18 9 C14.29397865 10.23534045 11.90246386 10.45528745 8 10 C4.57517419 7.92209185 1.53793556 5.70446997 0.3046875 1.796875 C0.20414063 1.20390625 0.10359375 0.6109375 0 0 Z " fill="#C6EA9D" transform="translate(172,134)"/>
<path d="M0 0 C1.07314453 0.24363281 1.07314453 0.24363281 2.16796875 0.4921875 C9.38461574 1.78620696 16.79670394 1.08728997 24 0 C22.68954637 3.93136089 21.16791954 6.31206827 18 9 C14.29397865 10.23534045 11.90246386 10.45528745 8 10 C4.57517419 7.92209185 1.53793556 5.70446997 0.3046875 1.796875 C0.20414062 1.20390625 0.10359375 0.6109375 0 0 Z " fill="#C6E99D" transform="translate(64,134)"/>
<path d="M0 0 C7.51254739 4.28506951 7.51254739 4.28506951 9.875 7.75 C12.89982665 10.95275763 15.6867009 10.7289132 19.953125 10.95703125 C20.62859375 10.97121094 21.3040625 10.98539063 22 11 C22.33 9.68 22.66 8.36 23 7 C23.125 9.875 23.125 9.875 23 13 C21 15 21 15 18.25 15.265625 C17.1775 15.26046875 16.105 15.2553125 15 15.25 C13.39125 15.25773438 13.39125 15.25773438 11.75 15.265625 C9 15 9 15 7 13 C6.731875 12.175 6.46375 11.35 6.1875 10.5 C5.23301921 7.75358691 5.23301921 7.75358691 2.4375 7 C1.633125 6.67 0.82875 6.34 0 6 C-0.875 3.4375 -0.875 3.4375 -1 1 C-0.67 0.67 -0.34 0.34 0 0 Z " fill="#CBECA1" transform="translate(217,129)"/>
<path d="M0 0 C2 2 2 2 2.8359375 4.046875 C3.84379098 6.19629766 3.84379098 6.19629766 6.1640625 6.828125 C6.97617187 6.96734375 7.78828125 7.1065625 8.625 7.25 C9.44226562 7.39953125 10.25953125 7.5490625 11.1015625 7.703125 C11.72804688 7.80109375 12.35453125 7.8990625 13 8 C12.34 9.32 11.68 10.64 11 12 C9.04196493 12.05389087 7.08351091 12.09274217 5.125 12.125 C4.03445312 12.14820313 2.94390625 12.17140625 1.8203125 12.1953125 C-1 12 -1 12 -3 10 C-3.38080215 6.49662019 -3.40245078 4.63721374 -1.5 1.625 C-1.005 1.08875 -0.51 0.5525 0 0 Z " fill="#CAEC9E" transform="translate(19,132)"/>
<path d="M0 0 C1.98 0 3.96 0 6 0 C8 2 8 2 8.3125 4.8125 C7.95719707 8.43658984 7.27731036 10.17299404 5 13 C3.35 13.66 1.7 14.32 0 15 C0 10.05 0 5.1 0 0 Z " fill="#F8FBF9" transform="translate(216,80)"/>
<path d="M0 0 C1.98 0 3.96 0 6 0 C6 4.95 6 9.9 6 15 C-0.01648352 12.59340659 -0.01648352 12.59340659 -2 8 C-2.3125 4.8125 -2.3125 4.8125 -2 2 C-1.34 1.34 -0.68 0.68 0 0 Z " fill="#F8FBF9" transform="translate(146,80)"/>
<path d="M0 0 C1.98 0 3.96 0 6 0 C8 2 8 2 8.3125 4.8125 C7.95719707 8.43658984 7.27731036 10.17299404 5 13 C3.35 13.66 1.7 14.32 0 15 C0 10.05 0 5.1 0 0 Z " fill="#F8FBF9" transform="translate(108,80)"/>
<path d="M0 0 C1.98 0 3.96 0 6 0 C6 4.95 6 9.9 6 15 C-0.01648352 12.59340659 -0.01648352 12.59340659 -2 8 C-2.3125 4.8125 -2.3125 4.8125 -2 2 C-1.34 1.34 -0.68 0.68 0 0 Z " fill="#F8FBF9" transform="translate(38,80)"/>
<path d="M0 0 C3.33855101 0.41731888 5.92690737 1.39462662 8.875 2.9375 C12.52665833 4.84663696 16.00768011 6.00192003 20 7 C20 7.99 20 8.98 20 10 C12.97155315 10.70284468 7.81094295 7.62137825 2.5 3.3125 C1.675 2.549375 0.85 1.78625 0 1 C0 0.67 0 0.34 0 0 Z " fill="#CDEDA2" transform="translate(80,73)"/>
<path d="M0 0 C2.625 0.375 2.625 0.375 5 1 C5.625 3.375 5.625 3.375 6 6 C5.34 6.66 4.68 7.32 4 8 C1.375 7.625 1.375 7.625 -1 7 C-1.625 4.625 -1.625 4.625 -2 2 C-1.34 1.34 -0.68 0.68 0 0 Z " fill="#478D8D" transform="translate(194,84)"/>
<path d="M0 0 C2.625 0.375 2.625 0.375 5 1 C5.625 3.375 5.625 3.375 6 6 C5.34 6.66 4.68 7.32 4 8 C1.375 7.625 1.375 7.625 -1 7 C-1.625 4.625 -1.625 4.625 -2 2 C-1.34 1.34 -0.68 0.68 0 0 Z " fill="#478D8D" transform="translate(170,84)"/>
<path d="M0 0 C2.625 0.375 2.625 0.375 5 1 C5.625 3.375 5.625 3.375 6 6 C5.34 6.66 4.68 7.32 4 8 C1.375 7.625 1.375 7.625 -1 7 C-1.625 4.625 -1.625 4.625 -2 2 C-1.34 1.34 -0.68 0.68 0 0 Z " fill="#478D8D" transform="translate(86,84)"/>
<path d="M0 0 C2.625 0.375 2.625 0.375 5 1 C5.625 3.375 5.625 3.375 6 6 C5.34 6.66 4.68 7.32 4 8 C1.375 7.625 1.375 7.625 -1 7 C-1.625 4.625 -1.625 4.625 -2 2 C-1.34 1.34 -0.68 0.68 0 0 Z " fill="#478D8D" transform="translate(62,84)"/>
<path d="M0 0 C-2.14117647 6.09411765 -2.14117647 6.09411765 -5 8 C-7.6875 7.6875 -7.6875 7.6875 -10 7 C-10.33 6.01 -10.66 5.02 -11 4 C-9.73308493 3.32591692 -8.46129251 2.66099503 -7.1875 2 C-6.47980469 1.62875 -5.77210937 1.2575 -5.04296875 0.875 C-3 0 -3 0 0 0 Z " fill="#F2F8F3" transform="translate(88,134)"/>
<path d="M0 0 C-1.875 4.875 -1.875 4.875 -3 6 C-5.33297433 6.04092937 -7.66705225 6.04241723 -10 6 C-10.33 5.34 -10.66 4.68 -11 4 C-9.73308493 3.32591692 -8.46129251 2.66099503 -7.1875 2 C-6.47980469 1.62875 -5.77210938 1.2575 -5.04296875 0.875 C-3 0 -3 0 0 0 Z " fill="#EFF6EF" transform="translate(196,134)"/>
<path d="M0 0 C1.65 1.65 3.3 3.3 5 5 C3.35 5.66 1.7 6.32 0 7 C0 4.69 0 2.38 0 0 Z " fill="#C9EAA4" transform="translate(216,88)"/>
<path d="M0 0 C1.65 1.65 3.3 3.3 5 5 C3.35 5.66 1.7 6.32 0 7 C0 4.69 0 2.38 0 0 Z " fill="#C9EAA4" transform="translate(108,88)"/>
<path d="M0 0 C0.33 0 0.66 0 1 0 C1 2.31 1 4.62 1 7 C-1.475 6.01 -1.475 6.01 -4 5 C-2.69254251 3.31295807 -1.35827971 1.64639965 0 0 Z " fill="#CAEAA4" transform="translate(151,88)"/>
<path d="M0 0 C0.33 0 0.66 0 1 0 C1 2.31 1 4.62 1 7 C-1.475 6.01 -1.475 6.01 -4 5 C-2.69254251 3.31295807 -1.35827971 1.64639965 0 0 Z " fill="#CAEAA4" transform="translate(43,88)"/>
</svg>
